<mxfile host="app.diagrams.net" agent="Mozilla/5.0 (Windows NT 10.0; Win64; x64) AppleWebKit/537.36 (KHTML, like Gecko) Chrome/140.0.0.0 Safari/537.36" version="28.2.5">
  <diagram name="Página-1" id="o9TUnyBgFQWdDRkByUd9">
    <mxGraphModel dx="1665" dy="777" grid="1" gridSize="10" guides="1" tooltips="1" connect="1" arrows="1" fold="1" page="1" pageScale="1" pageWidth="827" pageHeight="1169" math="0" shadow="0">
      <root>
        <mxCell id="0" />
        <mxCell id="1" parent="0" />
        <mxCell id="gFh22TVOVssjT3e0nCHR-18" value="" style="edgeStyle=orthogonalEdgeStyle;rounded=0;orthogonalLoop=1;jettySize=auto;html=1;" edge="1" parent="1" source="gFh22TVOVssjT3e0nCHR-1">
          <mxGeometry relative="1" as="geometry">
            <mxPoint x="400" y="180" as="targetPoint" />
          </mxGeometry>
        </mxCell>
        <mxCell id="gFh22TVOVssjT3e0nCHR-1" value="Início" style="ellipse;whiteSpace=wrap;html=1;" vertex="1" parent="1">
          <mxGeometry x="340" y="20" width="120" height="80" as="geometry" />
        </mxCell>
        <mxCell id="gFh22TVOVssjT3e0nCHR-2" value="Fim" style="ellipse;whiteSpace=wrap;html=1;" vertex="1" parent="1">
          <mxGeometry x="340" y="1610" width="120" height="80" as="geometry" />
        </mxCell>
        <mxCell id="gFh22TVOVssjT3e0nCHR-21" value="" style="edgeStyle=orthogonalEdgeStyle;rounded=0;orthogonalLoop=1;jettySize=auto;html=1;" edge="1" parent="1" target="gFh22TVOVssjT3e0nCHR-4">
          <mxGeometry relative="1" as="geometry">
            <mxPoint x="400" y="240" as="sourcePoint" />
          </mxGeometry>
        </mxCell>
        <mxCell id="gFh22TVOVssjT3e0nCHR-6" value="Sim" style="edgeStyle=orthogonalEdgeStyle;rounded=0;orthogonalLoop=1;jettySize=auto;html=1;" edge="1" parent="1" source="gFh22TVOVssjT3e0nCHR-4" target="gFh22TVOVssjT3e0nCHR-5">
          <mxGeometry relative="1" as="geometry" />
        </mxCell>
        <mxCell id="gFh22TVOVssjT3e0nCHR-8" value="Não" style="edgeStyle=orthogonalEdgeStyle;rounded=0;orthogonalLoop=1;jettySize=auto;html=1;" edge="1" parent="1" source="gFh22TVOVssjT3e0nCHR-4" target="gFh22TVOVssjT3e0nCHR-7">
          <mxGeometry relative="1" as="geometry" />
        </mxCell>
        <mxCell id="gFh22TVOVssjT3e0nCHR-4" value="N == 1" style="rhombus;whiteSpace=wrap;html=1;" vertex="1" parent="1">
          <mxGeometry x="360" y="320" width="80" height="80" as="geometry" />
        </mxCell>
        <mxCell id="gFh22TVOVssjT3e0nCHR-5" value="Escrever Baba-ovo" style="shape=parallelogram;perimeter=parallelogramPerimeter;whiteSpace=wrap;html=1;fixedSize=1;" vertex="1" parent="1">
          <mxGeometry x="525" y="330" width="130" height="60" as="geometry" />
        </mxCell>
        <mxCell id="gFh22TVOVssjT3e0nCHR-10" value="Não" style="edgeStyle=orthogonalEdgeStyle;rounded=0;orthogonalLoop=1;jettySize=auto;html=1;" edge="1" parent="1" source="gFh22TVOVssjT3e0nCHR-7" target="gFh22TVOVssjT3e0nCHR-9">
          <mxGeometry relative="1" as="geometry" />
        </mxCell>
        <mxCell id="gFh22TVOVssjT3e0nCHR-14" value="" style="edgeStyle=orthogonalEdgeStyle;rounded=0;orthogonalLoop=1;jettySize=auto;html=1;" edge="1" parent="1" source="gFh22TVOVssjT3e0nCHR-7" target="gFh22TVOVssjT3e0nCHR-13">
          <mxGeometry relative="1" as="geometry" />
        </mxCell>
        <mxCell id="gFh22TVOVssjT3e0nCHR-17" value="Sim" style="edgeLabel;html=1;align=center;verticalAlign=middle;resizable=0;points=[];" vertex="1" connectable="0" parent="gFh22TVOVssjT3e0nCHR-14">
          <mxGeometry x="-0.22" y="-1" relative="1" as="geometry">
            <mxPoint as="offset" />
          </mxGeometry>
        </mxCell>
        <mxCell id="gFh22TVOVssjT3e0nCHR-7" value="N == 2" style="rhombus;whiteSpace=wrap;html=1;" vertex="1" parent="1">
          <mxGeometry x="360" y="480" width="80" height="80" as="geometry" />
        </mxCell>
        <mxCell id="gFh22TVOVssjT3e0nCHR-12" value="Não" style="edgeStyle=orthogonalEdgeStyle;rounded=0;orthogonalLoop=1;jettySize=auto;html=1;" edge="1" parent="1" source="gFh22TVOVssjT3e0nCHR-9" target="gFh22TVOVssjT3e0nCHR-11">
          <mxGeometry relative="1" as="geometry" />
        </mxCell>
        <mxCell id="gFh22TVOVssjT3e0nCHR-16" value="Sim" style="edgeStyle=orthogonalEdgeStyle;rounded=0;orthogonalLoop=1;jettySize=auto;html=1;" edge="1" parent="1" source="gFh22TVOVssjT3e0nCHR-9" target="gFh22TVOVssjT3e0nCHR-15">
          <mxGeometry relative="1" as="geometry" />
        </mxCell>
        <mxCell id="gFh22TVOVssjT3e0nCHR-9" value="N == 3" style="rhombus;whiteSpace=wrap;html=1;" vertex="1" parent="1">
          <mxGeometry x="360" y="640" width="80" height="80" as="geometry" />
        </mxCell>
        <mxCell id="gFh22TVOVssjT3e0nCHR-20" value="Não" style="edgeStyle=orthogonalEdgeStyle;rounded=0;orthogonalLoop=1;jettySize=auto;html=1;" edge="1" parent="1" source="gFh22TVOVssjT3e0nCHR-11" target="gFh22TVOVssjT3e0nCHR-19">
          <mxGeometry relative="1" as="geometry" />
        </mxCell>
        <mxCell id="gFh22TVOVssjT3e0nCHR-23" value="Sim" style="edgeStyle=orthogonalEdgeStyle;rounded=0;orthogonalLoop=1;jettySize=auto;html=1;" edge="1" parent="1" source="gFh22TVOVssjT3e0nCHR-11" target="gFh22TVOVssjT3e0nCHR-22">
          <mxGeometry relative="1" as="geometry" />
        </mxCell>
        <mxCell id="gFh22TVOVssjT3e0nCHR-11" value="N == 4" style="rhombus;whiteSpace=wrap;html=1;" vertex="1" parent="1">
          <mxGeometry x="360" y="800" width="80" height="80" as="geometry" />
        </mxCell>
        <mxCell id="gFh22TVOVssjT3e0nCHR-13" value="Escrever Burro" style="shape=parallelogram;perimeter=parallelogramPerimeter;whiteSpace=wrap;html=1;fixedSize=1;" vertex="1" parent="1">
          <mxGeometry x="532.5" y="490" width="120" height="60" as="geometry" />
        </mxCell>
        <mxCell id="gFh22TVOVssjT3e0nCHR-15" value="Escrever Idiota" style="shape=parallelogram;perimeter=parallelogramPerimeter;whiteSpace=wrap;html=1;fixedSize=1;" vertex="1" parent="1">
          <mxGeometry x="530" y="650" width="120" height="60" as="geometry" />
        </mxCell>
        <mxCell id="gFh22TVOVssjT3e0nCHR-25" value="Não" style="edgeStyle=orthogonalEdgeStyle;rounded=0;orthogonalLoop=1;jettySize=auto;html=1;" edge="1" parent="1" source="gFh22TVOVssjT3e0nCHR-19" target="gFh22TVOVssjT3e0nCHR-24">
          <mxGeometry relative="1" as="geometry" />
        </mxCell>
        <mxCell id="gFh22TVOVssjT3e0nCHR-29" value="Sim" style="edgeStyle=orthogonalEdgeStyle;rounded=0;orthogonalLoop=1;jettySize=auto;html=1;" edge="1" parent="1" source="gFh22TVOVssjT3e0nCHR-19" target="gFh22TVOVssjT3e0nCHR-28">
          <mxGeometry relative="1" as="geometry" />
        </mxCell>
        <mxCell id="gFh22TVOVssjT3e0nCHR-19" value="N == 5" style="rhombus;whiteSpace=wrap;html=1;" vertex="1" parent="1">
          <mxGeometry x="360" y="950" width="80" height="80" as="geometry" />
        </mxCell>
        <mxCell id="gFh22TVOVssjT3e0nCHR-22" value="Escrever Narizinho" style="shape=parallelogram;perimeter=parallelogramPerimeter;whiteSpace=wrap;html=1;fixedSize=1;" vertex="1" parent="1">
          <mxGeometry x="525" y="810" width="135" height="60" as="geometry" />
        </mxCell>
        <mxCell id="gFh22TVOVssjT3e0nCHR-27" value="Não" style="edgeStyle=orthogonalEdgeStyle;rounded=0;orthogonalLoop=1;jettySize=auto;html=1;" edge="1" parent="1" source="gFh22TVOVssjT3e0nCHR-24" target="gFh22TVOVssjT3e0nCHR-26">
          <mxGeometry relative="1" as="geometry" />
        </mxCell>
        <mxCell id="gFh22TVOVssjT3e0nCHR-31" value="Sim" style="edgeStyle=orthogonalEdgeStyle;rounded=0;orthogonalLoop=1;jettySize=auto;html=1;" edge="1" parent="1" source="gFh22TVOVssjT3e0nCHR-24" target="gFh22TVOVssjT3e0nCHR-30">
          <mxGeometry relative="1" as="geometry" />
        </mxCell>
        <mxCell id="gFh22TVOVssjT3e0nCHR-24" value="N == 6" style="rhombus;whiteSpace=wrap;html=1;" vertex="1" parent="1">
          <mxGeometry x="360" y="1110" width="80" height="80" as="geometry" />
        </mxCell>
        <mxCell id="gFh22TVOVssjT3e0nCHR-33" value="Sim" style="edgeStyle=orthogonalEdgeStyle;rounded=0;orthogonalLoop=1;jettySize=auto;html=1;" edge="1" parent="1" source="gFh22TVOVssjT3e0nCHR-26" target="gFh22TVOVssjT3e0nCHR-32">
          <mxGeometry relative="1" as="geometry" />
        </mxCell>
        <mxCell id="gFh22TVOVssjT3e0nCHR-35" value="Não" style="edgeStyle=orthogonalEdgeStyle;rounded=0;orthogonalLoop=1;jettySize=auto;html=1;" edge="1" parent="1" source="gFh22TVOVssjT3e0nCHR-26" target="gFh22TVOVssjT3e0nCHR-34">
          <mxGeometry relative="1" as="geometry" />
        </mxCell>
        <mxCell id="gFh22TVOVssjT3e0nCHR-26" value="N == 7" style="rhombus;whiteSpace=wrap;html=1;" vertex="1" parent="1">
          <mxGeometry x="360" y="1270" width="80" height="80" as="geometry" />
        </mxCell>
        <mxCell id="gFh22TVOVssjT3e0nCHR-28" value="Escrever Pinóquio humano&amp;nbsp;" style="shape=parallelogram;perimeter=parallelogramPerimeter;whiteSpace=wrap;html=1;fixedSize=1;" vertex="1" parent="1">
          <mxGeometry x="530" y="960" width="130" height="60" as="geometry" />
        </mxCell>
        <mxCell id="gFh22TVOVssjT3e0nCHR-30" value="Escrever maluco" style="shape=parallelogram;perimeter=parallelogramPerimeter;whiteSpace=wrap;html=1;fixedSize=1;" vertex="1" parent="1">
          <mxGeometry x="532.5" y="1120" width="120" height="60" as="geometry" />
        </mxCell>
        <mxCell id="gFh22TVOVssjT3e0nCHR-32" value="Escrever putinho" style="shape=parallelogram;perimeter=parallelogramPerimeter;whiteSpace=wrap;html=1;fixedSize=1;" vertex="1" parent="1">
          <mxGeometry x="530" y="1280" width="120" height="60" as="geometry" />
        </mxCell>
        <mxCell id="gFh22TVOVssjT3e0nCHR-36" value="" style="edgeStyle=orthogonalEdgeStyle;rounded=0;orthogonalLoop=1;jettySize=auto;html=1;" edge="1" parent="1" source="gFh22TVOVssjT3e0nCHR-34" target="gFh22TVOVssjT3e0nCHR-2">
          <mxGeometry relative="1" as="geometry" />
        </mxCell>
        <mxCell id="gFh22TVOVssjT3e0nCHR-38" value="Sim" style="edgeStyle=orthogonalEdgeStyle;rounded=0;orthogonalLoop=1;jettySize=auto;html=1;" edge="1" parent="1" source="gFh22TVOVssjT3e0nCHR-34" target="gFh22TVOVssjT3e0nCHR-37">
          <mxGeometry relative="1" as="geometry" />
        </mxCell>
        <mxCell id="gFh22TVOVssjT3e0nCHR-34" value="N == 8" style="rhombus;whiteSpace=wrap;html=1;" vertex="1" parent="1">
          <mxGeometry x="360" y="1430" width="80" height="80" as="geometry" />
        </mxCell>
        <mxCell id="gFh22TVOVssjT3e0nCHR-37" value="Escrever pequeninho" style="shape=parallelogram;perimeter=parallelogramPerimeter;whiteSpace=wrap;html=1;fixedSize=1;" vertex="1" parent="1">
          <mxGeometry x="540" y="1440" width="120" height="60" as="geometry" />
        </mxCell>
        <mxCell id="gFh22TVOVssjT3e0nCHR-39" value="Ler N" style="shape=parallelogram;perimeter=parallelogramPerimeter;whiteSpace=wrap;html=1;fixedSize=1;" vertex="1" parent="1">
          <mxGeometry x="340" y="180" width="120" height="60" as="geometry" />
        </mxCell>
      </root>
    </mxGraphModel>
  </diagram>
</mxfile>
